<svg width="102" height="102" viewBox="0 0 102 102" fill="none" xmlns="http://www.w3.org/2000/svg">
<rect x="1.5" y="1.5" width="99" height="99" fill="white" stroke="black" stroke-width="3"/>
<path d="M64.8352 37.2727C64.4858 34.322 63.0687 32.0312 60.5838 30.4006C58.099 28.7699 55.0511 27.9545 51.4403 27.9545C48.8002 27.9545 46.4901 28.3816 44.5099 29.2358C42.5492 30.09 41.0156 31.2644 39.9091 32.7592C38.822 34.254 38.2784 35.9526 38.2784 37.8551C38.2784 39.447 38.657 40.8156 39.4141 41.9609C40.1906 43.0869 41.1806 44.0284 42.3842 44.7855C43.5878 45.5232 44.8497 46.1347 46.1697 46.62C47.4898 47.0859 48.7031 47.4645 49.8097 47.7557L55.8665 49.3864C57.4195 49.794 59.1473 50.357 61.0497 51.0753C62.9716 51.7936 64.8061 52.7739 66.5533 54.0163C68.3198 55.2393 69.7758 56.8118 70.9212 58.7337C72.0665 60.6555 72.6392 63.0142 72.6392 65.8097C72.6392 69.0322 71.7947 71.9441 70.1058 74.5455C68.4363 77.1468 65.9903 79.2143 62.7678 80.7479C59.5646 82.2815 55.6723 83.0483 51.0909 83.0483C46.8201 83.0483 43.1219 82.3591 39.9964 80.9808C36.8904 79.6025 34.4444 77.6806 32.6584 75.2152C30.8918 72.7498 29.892 69.8864 29.6591 66.625H37.1136C37.3078 68.8769 38.0649 70.7405 39.3849 72.2159C40.7244 73.6719 42.4134 74.759 44.4517 75.4773C46.5095 76.1761 48.7225 76.5256 51.0909 76.5256C53.8475 76.5256 56.3227 76.0791 58.5163 75.1861C60.71 74.2737 62.4474 73.0118 63.7287 71.4006C65.0099 69.7699 65.6506 67.8674 65.6506 65.6932C65.6506 63.7131 65.0973 62.1018 63.9908 60.8594C62.8842 59.617 61.4283 58.6075 59.6229 57.831C57.8175 57.0545 55.8665 56.375 53.7699 55.7926L46.4318 53.696C41.7727 52.3565 38.0843 50.4444 35.3665 47.9595C32.6487 45.4747 31.2898 42.223 31.2898 38.2045C31.2898 34.8655 32.1925 31.9536 33.9979 29.4688C35.8227 26.9645 38.2687 25.0232 41.3359 23.6449C44.4226 22.2472 47.8684 21.5483 51.6733 21.5483C55.517 21.5483 58.9337 22.2375 61.9233 23.6158C64.9129 24.9747 67.2813 26.8383 69.0284 29.2067C70.795 31.575 71.7268 34.2637 71.8239 37.2727H64.8352Z" fill="black"/>
</svg>
